<?xml version="1.0" encoding="utf-8"?>
<!-- Generator: Adobe Illustrator 19.1.0, SVG Export Plug-In . SVG Version: 6.00 Build 0)  -->
<svg version="1.1" xmlns="http://www.w3.org/2000/svg" xmlns:xlink="http://www.w3.org/1999/xlink" x="0px" y="0px"
	 viewBox="0 0 11.4 10" style="enable-background:new 0 0 11.4 10;" xml:space="preserve">
<style type="text/css">
	.st0{display:none;}
	.st1{display:inline;}
	.st2{fill:#FFFFFF;}
	.st3{font-family:'Tungsten-Bold';}
	.st4{font-size:48px;}
	.st5{fill:#D42258;}
</style>
<g id="Calque_2" class="st0">
	<rect id="XMLID_1_" x="-179.8" y="-104.2" class="st1" width="300" height="300"/>
</g>
<g id="Calque_1">
	<text id="XMLID_2_" transform="matrix(1 0 0 1 -90.8614 48.9349)" class="st2 st3 st4">STARLOVERS</text>
	<g id="XMLID_7_">
		<path id="XMLID_8_" class="st5" d="M8,0C6.9,0,6.1,0.6,5.7,1.1C5.3,0.6,4.5,0,3.3,0C1.3,0,0,1.9,0,3.6c0,2.5,4.8,5.9,5.4,6.3
			c0.1,0.1,0.2,0.1,0.3,0.1c0.1,0,0.2,0,0.3-0.1c0.6-0.4,5.4-3.7,5.4-6.3C11.4,1.9,10,0,8,0z"/>
	</g>
</g>
</svg>
