<svg id="Calque_1" xmlns="http://www.w3.org/2000/svg" viewBox="0 0 47.8 64.6"><style>.st0,.st1{display:none}.st1{fill:#dadada}.st2{display:none;fill:#56a23f}.st3{display:none;fill:#d31e35}.st4{fill:#222322}.st4,.st5,.st6{display:inline}.st6{fill:#161615}.st7{fill:#5a5a5a}.st7,.st8{display:inline}.st8{fill:#444443}.st9{fill:#986726}.st10{fill:#47361a}.st11{fill:#9f7236}.st12{fill:#aa7d3f}.st13{fill:#3d3c3d}.st14{fill:#222325}.st15,.st16{fill:#FFF}.st16{display:none;stroke:#c6c6c6;stroke-width:8;stroke-miterlimit:10}</style><path class="st0" d="M-510.2-648.2h800v800h-800z"/><path class="st1" d="M-395.5-37.6h570.6v157.4h-570.6z"/><circle class="st2" cx="22.8" cy="43.2" r="57.6"/><circle class="st9" cx="24" cy="23.1" r="23.1"/><path class="st10" d="M43.4 47l4.1 5.9H36.9z"/><path class="st9" d="M46.8 25.6s.5 5.5-.4 7.8c0 0 2.3 2.7 1.1 19.5l-4.1-4.6-5.3 12.6-8.4-21.3 17.1-14z"/><path class="st10" d="M38.1 60.8l-9.7-4 5.6-8.5z"/><path class="st11" d="M23.9 29.8c8.1-2 13.8 3.5 13.8 12.4S23.9 64.6 23.9 64.6"/><path class="st10" d="M4.4 47L.3 52.9h10.6z"/><path class="st9" d="M1 25.6s-.5 5.5.4 7.8c0 0-2.3 2.7-1.1 19.5l4.1-4.6 5.3 12.6 8.4-21.3L1 25.6z"/><path class="st10" d="M9.7 60.8l9.7-4-5.5-8.5z"/><path class="st12" d="M23.9 64.6S10.1 51.1 10.1 42.2s5.7-14.4 13.8-12.4"/><path class="st13" d="M19.8 29.3l4.1-2.7v5.5z"/><path class="st14" d="M28 29.4l-4.1-2.8v5.5z"/><ellipse cx="17.3" cy="23.9" rx="4.3" ry="1.8"/><ellipse cx="30.6" cy="23.9" rx="4.3" ry="1.8"/><circle class="st15" cx="17.8" cy="24.7" r=".8"/><circle class="st15" cx="30.1" cy="24.7" r=".8"/></svg>