<svg id="Calque_1" xmlns="http://www.w3.org/2000/svg" viewBox="0 0 69.8 69.8"><style>.st0,.st1{display:none}.st1{fill:#dadada}.st2{display:none;fill:#56a23f}.st3{display:none;fill:#d31e35}.st4{fill:#222322}.st5{fill:#161615}.st6{fill:#5a5a5a}.st7{fill:#444443}.st8{display:inline}.st9{fill:#986726}.st10{fill:#47361a}.st11{fill:#9f7236}.st12{fill:#aa7d3f}.st13{fill:#3d3c3d}.st14{fill:#222325}.st15{display:inline;fill:#FFF}.st16{display:none;fill:#FFF;stroke:#c6c6c6;stroke-width:8;stroke-miterlimit:10}</style><path class="st0" d="M-234-651h800v800h-800z"/><path class="st1" d="M-119.3-40.5h570.6v157.4h-570.6z"/><circle class="st3" cx="34.9" cy="34.7" r="57.6"/><path class="st4" d="M2.6 50.6l9.8-27.4 18.9 22.2z"/><path class="st4" d="M34.9 53.6c-13.2 0-23.9-12-23.9-26.8S21.7 0 34.9 0"/><path d="M69.8 56.6L34.9 69.8 0 56.6z"/><path class="st5" d="M67.2 50.6l-9.7-27.4-18.9 22.2z"/><path class="st5" d="M34.9 53.6c13.2 0 23.9-12 23.9-26.8S48.1 0 34.9 0"/><path d="M30.2 47.6c.1-10.7 4.5-20.1 13-20.1s23.7 18 26.7 29"/><path d="M39.7 47.6c-.1-10.7-4.5-20.1-13-20.1-9 .1-23.2 16.2-26.7 29"/><path d="M0 56.6l34.9-12 34.9 12z"/><path class="st6" d="M23.3 48h3v7.9h-3zM28.2 43.8h3v12.1h-3zM33.2 40.4h3v15.5h-3z"/><path class="st7" d="M43.5 48h3v7.9h-3zM38.6 43.8h3v12.1h-3z"/></svg>