<svg id="Calque_1" xmlns="http://www.w3.org/2000/svg" viewBox="-112.7 47.1 222.1 60.9"><style>.st0{display:none}.st1{display:inline}.st2{enable-background:new}.st3{fill:#FFF}.st4{fill:#d42258}.st5{display:none;enable-background:new}.st6{display:inline;fill:#d42258}</style><g id="Calque_2" class="st0"><path id="XMLID_1_" class="st1" d="M-149-50h300v300h-300z"/></g><g class="st2"><path class="st3" d="M-42.8 91v6.2c0 4.2-2.1 6.2-6.2 6.2h-3.7c-4.2 0-6.2-2.1-6.2-6.2V90h6.6v6.5c0 .8.4 1.2 1.2 1.2h.6c.8 0 1.2-.4 1.2-1.2v-4c0-1.1-.3-1.6-1.2-2.2l-5.8-4.3c-2.1-1.5-2.7-2.9-2.7-5.3v-5.3c0-4.2 2.1-6.2 6.2-6.2h3.6c4.2 0 6.2 2.1 6.2 6.2v6.1h-6.6V76c0-.8-.4-1.2-1.2-1.2h-.5c-.8 0-1.2.4-1.2 1.2v3.2c0 1.1.3 1.6 1.2 2.2l5.8 4.3c2.1 1.5 2.7 2.8 2.7 5.3zM-37.7 103.1V75.5h-4.1v-6h14.9v6H-31v27.6h-6.7zM-16.7 103.1l-.5-4.9h-4.2l-.5 4.9H-28l4.4-33.6h9.2l4.4 33.6h-6.7zm-4.2-10.7h3l-1.5-14.6-1.5 14.6zM7.7 91.5v11.6H1V91.6c0-.8-.4-1.2-1.2-1.2h-1.7v12.7h-6.7V69.5h10c4.2 0 6.2 2.1 6.2 6.2v6.5c0 2.9-1.1 4.3-2.9 5 2.1.6 3 1.9 3 4.3zm-8-16.1h-1.6v9.3h1.6c.8 0 1.2-.4 1.2-1.2v-6.9c0-.8-.3-1.2-1.2-1.2zM16.7 69.5v27.6h4.8v6H10V69.5h6.7zM33.5 103.4h-4.3c-4.2 0-6.2-2.1-6.2-6.2V75.5c0-4.2 2.1-6.2 6.2-6.2h4.3c4.2 0 6.2 2.1 6.2 6.2v21.7c.1 4.1-2 6.2-6.2 6.2zM31.8 75h-1c-.8 0-1.2.4-1.2 1.2v20.3c0 .8.4 1.2 1.2 1.2h1c.8 0 1.2-.4 1.2-1.2V76.2c0-.8-.3-1.2-1.2-1.2zM45.4 103.1l-4.5-33.6h6.8L50 93.4l2.4-23.9h6.2l-4.5 33.6h-8.7zM72.6 69.5v6h-5.8V83h5.5v6h-5.5v8.1h5.9v6H60.2V69.5h12.4zM91.2 91.5v11.6h-6.7V91.6c0-.8-.4-1.2-1.2-1.2h-1.7v12.7h-6.7V69.5h10c4.2 0 6.2 2.1 6.2 6.2v6.5c0 2.9-1.1 4.3-2.9 5 2.2.6 3 1.9 3 4.3zm-7.9-16.1h-1.6v9.3h1.6c.8 0 1.2-.4 1.2-1.2v-6.9c0-.8-.4-1.2-1.2-1.2zM109.5 91v6.2c0 4.2-2.1 6.2-6.2 6.2h-3.7c-4.2 0-6.2-2.1-6.2-6.2V90h6.6v6.5c0 .8.4 1.2 1.2 1.2h.6c.8 0 1.2-.4 1.2-1.2v-4c0-1.1-.3-1.6-1.2-2.2L96 86.1c-2.1-1.5-2.7-2.9-2.7-5.3v-5.3c0-4.2 2.1-6.2 6.2-6.2h3.6c4.2 0 6.2 2.1 6.2 6.2v6.1h-6.6v-5.5c0-.8-.4-1.2-1.2-1.2h-.5c-.8 0-1.2.4-1.2 1.2v3.2c0 1.1.3 1.6 1.2 2.2l5.8 4.3c2.1 1.4 2.7 2.7 2.7 5.2z"/></g><path id="XMLID_4_" class="st3" d="M29.4 73.1h4.5v27.6h-4.5z"/><g id="XMLID_3_"><path id="XMLID_5_" class="st4" d="M33.7 82.1c-1.2 0-1.9.6-2.3 1.1-.4-.5-1.2-1.1-2.3-1.1-2 0-3.3 1.9-3.3 3.6 0 2.5 4.8 5.9 5.4 6.3.1.1.2.1.3.1s.2 0 .3-.1c.6-.4 5.4-3.7 5.4-6.3-.1-1.7-1.5-3.6-3.5-3.6z"/></g><g id="XMLID_7_"><path id="XMLID_8_" class="st4" d="M38.9 54.2c-1.2 0-1.9.6-2.3 1.1-.4-.5-1.2-1.1-2.3-1.1-2 0-3.3 1.9-3.3 3.6 0 2.5 4.8 5.9 5.4 6.3.1.1.2.1.3.1s.2 0 .3-.1c.6-.4 5.4-3.7 5.4-6.3-.2-1.8-1.5-3.6-3.5-3.6z"/></g><g id="XMLID_9_"><path id="XMLID_10_" class="st4" d="M46.4 47.1c-.6 0-1 .3-1.2.6-.2-.3-.6-.6-1.2-.6-1 0-1.7 1-1.7 1.9 0 1.3 2.5 3.1 2.8 3.3h.4c.3-.2 2.8-2 2.8-3.3-.2-.9-.9-1.9-1.9-1.9z"/></g><path id="XMLID_11_" class="st4" d="M-76.7 83.4V78c0-6.6-5.4-12-12-12h-6c-6.6 0-12 5.4-12 12v5.4l-6 15.6c0 3 9.4 9 21 9s21-6 21-9l-6-15.6zm-24 19.7c-.6 0-1.1-.5-1.1-1.1s.5-1.1 1.1-1.1c.6 0 1.1.5 1.1 1.1s-.5 1.1-1.1 1.1zm-1.5-16.1c0-.8.4-2 .9-2.7 0 0 1.4-1.8 4.3-1.8 1.5 0 2.5.7 2.5.7.7.5 1.3 1.5 1.3 2.3v2.2c0 .4-.7.8-1.5.8h-6c-.8 0-1.5-.7-1.5-1.5zm6 15h-1.5v-3l1.5-1.5v4.5zm3.8 0h-2.2v-6h2.2v6zm-1.5-7.5v-2.2c0-1.2 1-2.2 2.2-2.2 1.2 0 2.2 1 2.2 2.2v2.2h-4.4zm5.2 7.5h-2.2v-6h2.2v6zm3 0h-1.5v-4.5l1.5 1.5v3zm3 1.1c-.6 0-1.1-.5-1.1-1.1s.5-1.1 1.1-1.1 1.1.5 1.1 1.1-.5 1.1-1.1 1.1zm0-14.6h-6c-.8 0-1.5-.3-1.5-.8v-2.2c0-.8.6-1.9 1.3-2.3 0 0 1-.7 2.5-.7 2.9 0 4.3 1.8 4.3 1.8.5.6.9 1.9.9 2.7s-.6 1.5-1.5 1.5zm9.3 11.2c-.1 0-.2.1-.3.1-.3 0-.6-.2-.7-.5l-5.5-14c-1.4-3.6-3.2-5-6.4-5-2.1 0-3.8 1.3-3.8 1.3-.9.7-2.4.7-3.3 0 0 0-1.8-1.3-3.8-1.3-3.1 0-4.9 1.4-6.4 5l-5.5 14c-.2.4-.6.6-1 .4-.4-.1-.6-.6-.4-1l5.5-14c1.7-4.2 4-6 7.8-6 2.6 0 4.7 1.5 4.7 1.6.4.3 1.1.3 1.5 0 .1-.1 2.2-1.6 4.7-1.6 3.8 0 6.1 1.8 7.8 6l5.5 14c.2.4 0 .8-.4 1z"/></svg>