<svg id="Calque_1" xmlns="http://www.w3.org/2000/svg" viewBox="-112.7 47.1 222.1 74.5"><style>.st0{display:none}.st1{display:inline}.st2{enable-background:new}.st3{fill:#FFF}.st4{fill:#d42258}</style><g id="Calque_2" class="st0"><path id="XMLID_1_" class="st1" d="M-149-50h300v300h-300z"/></g><g class="st2"><path class="st3" d="M-42.8 91v6.2c0 4.2-2.1 6.2-6.2 6.2h-3.7c-4.2 0-6.2-2.1-6.2-6.2V90h6.6v6.5c0 .8.4 1.2 1.2 1.2h.6c.8 0 1.2-.4 1.2-1.2v-4c0-1.1-.3-1.6-1.2-2.2l-5.8-4.3c-2.1-1.5-2.7-2.9-2.7-5.3v-5.3c0-4.2 2.1-6.2 6.2-6.2h3.6c4.2 0 6.2 2.1 6.2 6.2v6.1h-6.6V76c0-.8-.4-1.2-1.2-1.2h-.5c-.8 0-1.2.4-1.2 1.2v3.2c0 1.1.3 1.6 1.2 2.2l5.8 4.3c2.1 1.5 2.7 2.8 2.7 5.3zM-37.7 103.1V75.5h-4.1v-6h14.9v6H-31v27.6h-6.7zM-16.7 103.1l-.5-4.9h-4.2l-.5 4.9H-28l4.4-33.6h9.2l4.4 33.6h-6.7zm-4.2-10.7h3l-1.5-14.6-1.5 14.6zM7.7 91.5v11.6H1V91.6c0-.8-.4-1.2-1.2-1.2h-1.7v12.7h-6.7V69.5h10c4.2 0 6.2 2.1 6.2 6.2v6.5c0 2.9-1.1 4.3-2.9 5 2.1.6 3 1.9 3 4.3zm-8-16.1h-1.6v9.3h1.6c.8 0 1.2-.4 1.2-1.2v-6.9c0-.8-.3-1.2-1.2-1.2zM16.7 69.5v27.6h4.8v6H10V69.5h6.7zM33.5 103.4h-4.3c-4.2 0-6.2-2.1-6.2-6.2V75.5c0-4.2 2.1-6.2 6.2-6.2h4.3c4.2 0 6.2 2.1 6.2 6.2v21.7c.1 4.1-2 6.2-6.2 6.2zM31.8 75h-1c-.8 0-1.2.4-1.2 1.2v20.3c0 .8.4 1.2 1.2 1.2h1c.8 0 1.2-.4 1.2-1.2V76.2c0-.8-.3-1.2-1.2-1.2zM45.4 103.1l-4.5-33.6h6.8L50 93.4l2.4-23.9h6.2l-4.5 33.6h-8.7zM72.6 69.5v6h-5.8V83h5.5v6h-5.5v8.1h5.9v6H60.2V69.5h12.4zM91.2 91.5v11.6h-6.7V91.6c0-.8-.4-1.2-1.2-1.2h-1.7v12.7h-6.7V69.5h10c4.2 0 6.2 2.1 6.2 6.2v6.5c0 2.9-1.1 4.3-2.9 5 2.2.6 3 1.9 3 4.3zm-7.9-16.1h-1.6v9.3h1.6c.8 0 1.2-.4 1.2-1.2v-6.9c0-.8-.4-1.2-1.2-1.2zM109.5 91v6.2c0 4.2-2.1 6.2-6.2 6.2h-3.7c-4.2 0-6.2-2.1-6.2-6.2V90h6.6v6.5c0 .8.4 1.2 1.2 1.2h.6c.8 0 1.2-.4 1.2-1.2v-4c0-1.1-.3-1.6-1.2-2.2L96 86.1c-2.1-1.5-2.7-2.9-2.7-5.3v-5.3c0-4.2 2.1-6.2 6.2-6.2h3.6c4.2 0 6.2 2.1 6.2 6.2v6.1h-6.6v-5.5c0-.8-.4-1.2-1.2-1.2h-.5c-.8 0-1.2.4-1.2 1.2v3.2c0 1.1.3 1.6 1.2 2.2l5.8 4.3c2.1 1.4 2.7 2.7 2.7 5.2z"/></g><path id="XMLID_4_" class="st3" d="M29.4 73.1h4.5v27.6h-4.5z"/><g id="XMLID_3_"><path id="XMLID_5_" class="st4" d="M33.7 82.1c-1.2 0-1.9.6-2.3 1.1-.4-.5-1.2-1.1-2.3-1.1-2 0-3.3 1.9-3.3 3.6 0 2.5 4.8 5.9 5.4 6.3.1.1.2.1.3.1s.2 0 .3-.1c.6-.4 5.4-3.7 5.4-6.3-.1-1.7-1.5-3.6-3.5-3.6z"/></g><g id="XMLID_7_"><path id="XMLID_8_" class="st4" d="M38.9 54.2c-1.2 0-1.9.6-2.3 1.1-.4-.5-1.2-1.1-2.3-1.1-2 0-3.3 1.9-3.3 3.6 0 2.5 4.8 5.9 5.4 6.3.1.1.2.1.3.1s.2 0 .3-.1c.6-.4 5.4-3.7 5.4-6.3-.2-1.8-1.5-3.6-3.5-3.6z"/></g><g id="XMLID_9_"><path id="XMLID_10_" class="st4" d="M46.4 47.1c-.6 0-1 .3-1.2.6-.2-.3-.6-.6-1.2-.6-1 0-1.7 1-1.7 1.9 0 1.3 2.5 3.1 2.8 3.3h.4c.3-.2 2.8-2 2.8-3.3-.2-.9-.9-1.9-1.9-1.9z"/></g><path id="XMLID_11_" class="st4" d="M-76.7 83.4V78c0-6.6-5.4-12-12-12h-6c-6.6 0-12 5.4-12 12v5.4l-6 15.6c0 3 9.4 9 21 9s21-6 21-9l-6-15.6zm-24 19.7c-.6 0-1.1-.5-1.1-1.1s.5-1.1 1.1-1.1c.6 0 1.1.5 1.1 1.1s-.5 1.1-1.1 1.1zm-1.5-16.1c0-.8.4-2 .9-2.7 0 0 1.4-1.8 4.3-1.8 1.5 0 2.5.7 2.5.7.7.5 1.3 1.5 1.3 2.3v2.2c0 .4-.7.8-1.5.8h-6c-.8 0-1.5-.7-1.5-1.5zm6 15h-1.5v-3l1.5-1.5v4.5zm3.8 0h-2.2v-6h2.2v6zm-1.5-7.5v-2.2c0-1.2 1-2.2 2.2-2.2 1.2 0 2.2 1 2.2 2.2v2.2h-4.4zm5.2 7.5h-2.2v-6h2.2v6zm3 0h-1.5v-4.5l1.5 1.5v3zm3 1.1c-.6 0-1.1-.5-1.1-1.1s.5-1.1 1.1-1.1 1.1.5 1.1 1.1-.5 1.1-1.1 1.1zm0-14.6h-6c-.8 0-1.5-.3-1.5-.8v-2.2c0-.8.6-1.9 1.3-2.3 0 0 1-.7 2.5-.7 2.9 0 4.3 1.8 4.3 1.8.5.6.9 1.9.9 2.7s-.6 1.5-1.5 1.5zm9.3 11.2c-.1 0-.2.1-.3.1-.3 0-.6-.2-.7-.5l-5.5-14c-1.4-3.6-3.2-5-6.4-5-2.1 0-3.8 1.3-3.8 1.3-.9.7-2.4.7-3.3 0 0 0-1.8-1.3-3.8-1.3-3.1 0-4.9 1.4-6.4 5l-5.5 14c-.2.4-.6.6-1 .4-.4-.1-.6-.6-.4-1l5.5-14c1.7-4.2 4-6 7.8-6 2.6 0 4.7 1.5 4.7 1.6.4.3 1.1.3 1.5 0 .1-.1 2.2-1.6 4.7-1.6 3.8 0 6.1 1.8 7.8 6l5.5 14c.2.4 0 .8-.4 1z"/><g class="st2"><path class="st4" d="M-55.7 121.6l-1.9-6.2c.1 1.3.1 2.1.1 2.5v3.7H-59v-7.9h2.3l1.9 6 2-6h2.3v7.9h-1.6v-3.7-.6c0-.2 0-.8.1-1.8l-2 6.2h-1.7zM-43.2 121.6l-.6-1.9h-2.9l-.6 1.9H-49l2.8-7.9h2l2.8 7.9h-1.8zm-1-3.2c-.5-1.7-.8-2.7-.9-2.9-.1-.2-.1-.4-.1-.5-.1.5-.5 1.6-1 3.4h2zM-37.3 117l1.6-3.2h1.8l-2.6 4.8v3.1h-1.7v-3l-2.6-4.9h1.8l1.7 3.2zM-25.6 121.6h-1.7v-6.5h-2.1v-1.4h5.9v1.4h-2.1v6.5zM-15.2 121.6h-1.7v-3.4H-20v3.4h-1.7v-7.9h1.7v3.1h3.1v-3.1h1.7v7.9zM-8 121.6h-4.5v-7.9H-8v1.4h-2.9v1.7h2.7v1.4h-2.7v2H-8v1.4zM-2.2 121.6v-7.9h1.7v6.5h3.2v1.4h-4.9zM11.8 117.7c0 1.3-.3 2.3-1 3-.6.7-1.6 1-2.8 1s-2.1-.3-2.8-1c-.6-.7-1-1.7-1-3s.3-2.3 1-3c.6-.7 1.6-1 2.8-1 1.2 0 2.1.3 2.8 1 .7.7 1 1.7 1 3zm-5.7 0c0 .9.2 1.5.5 2s.8.7 1.5.7c1.3 0 2-.9 2-2.6 0-1.8-.7-2.7-2-2.7-.7 0-1.2.2-1.5.7-.3.4-.5 1-.5 1.9zM18.6 113.8h1.7l-2.7 7.9h-1.8l-2.7-7.9h1.7l1.5 4.7c.1.3.2.6.3 1 .1.4.1.6.2.8 0-.3.2-.9.4-1.7l1.4-4.8zM26.5 121.6H22v-7.9h4.5v1.4h-2.9v1.7h2.7v1.4h-2.7v2h2.9v1.4zM32.3 113.8h2.4c1.1 0 1.9.2 2.4.5s.8.8.8 1.5c0 .5-.1.9-.3 1.2-.2.3-.5.5-.9.5v.1c.5.1.9.3 1.1.6.2.3.3.7.3 1.2 0 .7-.3 1.3-.8 1.7s-1.2.6-2.1.6h-2.9v-7.9zm1.7 3.1h1c.5 0 .8-.1 1-.2.2-.1.3-.4.3-.7 0-.3-.1-.5-.3-.6-.2-.1-.6-.2-1-.2h-1v1.7zm0 1.3v2h1.1c.5 0 .8-.1 1-.3.2-.2.3-.4.3-.8 0-.7-.5-1-1.4-1h-1zM44.9 121.6h-4.5v-7.9h4.5v1.4H42v1.7h2.7v1.4H42v2h2.9v1.4zM58.4 121.6h-1.9l-1.1-4.1c0-.1-.1-.5-.2-.9-.1-.5-.1-.8-.2-.9 0 .2-.1.5-.2.9s-.2.7-.2.9l-1.1 4.1h-1.9l-2-7.9h1.6l1 4.3c.2.8.3 1.5.4 2.1 0-.2.1-.5.1-.9s.1-.8.2-1l1.1-4.4h1.6l1.1 4.4c.1.2.1.5.2.9s.1.8.2 1c0-.3.1-.6.2-1s.2-.8.2-1l1-4.3h1.6l-1.7 7.8zM62 121.6v-7.9h1.7v7.9H62zM69.4 121.6h-1.7v-6.5h-2.1v-1.4h5.9v1.4h-2.1v6.5zM79.8 121.6h-1.7v-3.4H75v3.4h-1.7v-7.9H75v3.1h3.1v-3.1h1.7v7.9zM88.5 117l1.6-3.2h1.8l-2.6 4.8v3.1h-1.7v-3l-2.6-4.9h1.8l1.7 3.2zM100.7 117.7c0 1.3-.3 2.3-1 3-.6.7-1.6 1-2.8 1s-2.1-.3-2.8-1c-.6-.7-1-1.7-1-3s.3-2.3 1-3 1.6-1 2.8-1c1.2 0 2.1.3 2.8 1 .7.7 1 1.7 1 3zm-5.8 0c0 .9.2 1.5.5 2s.8.7 1.5.7c1.3 0 2-.9 2-2.6 0-1.8-.7-2.7-2-2.7-.7 0-1.2.2-1.5.7-.3.4-.5 1-.5 1.9zM109.4 113.8v5.1c0 .6-.1 1.1-.4 1.5s-.6.8-1.1 1c-.5.2-1.1.3-1.7.3-1 0-1.8-.3-2.4-.8s-.8-1.2-.8-2.1v-5.1h1.7v4.8c0 .6.1 1 .4 1.3.2.3.6.4 1.2.4.5 0 .9-.1 1.2-.4.2-.3.4-.7.4-1.3v-4.8h1.5z"/></g></svg>