<svg id="Calque_1" xmlns="http://www.w3.org/2000/svg" viewBox="0 0 224.5 42"><style>.st0{fill:#FFF}.st1{fill:#d42258}</style><path class="st0" d="M69.9 25v6.2c0 4.2-2.1 6.2-6.2 6.2H60c-4.2 0-6.2-2.1-6.2-6.2V24h6.6v6.5c0 .8.4 1.2 1.2 1.2h.6c.8 0 1.2-.4 1.2-1.2v-4c0-1.1-.3-1.6-1.2-2.2L56.4 20c-2.1-1.5-2.7-2.9-2.7-5.3V9.5c0-4.2 2.1-6.2 6.2-6.2h3.6c4.2 0 6.2 2.1 6.2 6.2v6.1h-6.6v-5.5c0-.8-.4-1.2-1.2-1.2h-.5c-.8 0-1.2.4-1.2 1.2v3.2c0 1.1.3 1.6 1.2 2.2l5.8 4.3c2.1 1.4 2.7 2.7 2.7 5.2zM75 37.1V9.5h-4.1v-6h14.9v6h-4.1v27.6H75zM95.9 37.1l-.5-4.9h-4.2l-.5 4.9h-6.1L89 3.5h9.2l4.4 33.6h-6.7zm-4.1-10.7h3l-1.5-14.6-1.5 14.6zM120.4 25.6v11.6h-6.7V25.6c0-.8-.4-1.2-1.2-1.2h-1.7v12.7h-6.7V3.5h10c4.2 0 6.2 2.1 6.2 6.2v6.5c0 2.9-1.1 4.3-2.9 5 2.1.6 3 1.9 3 4.4zm-8-16.2h-1.6v9.3h1.6c.8 0 1.2-.4 1.2-1.2v-6.9c0-.8-.4-1.2-1.2-1.2zM129.4 3.5v27.6h4.8v6h-11.6V3.5h6.8zM146.2 37.4h-4.3c-4.2 0-6.2-2.1-6.2-6.2V9.5c0-4.2 2.1-6.2 6.2-6.2h4.3c4.2 0 6.2 2.1 6.2 6.2v21.7c0 4.2-2 6.2-6.2 6.2zM144.5 9h-1c-.8 0-1.2.4-1.2 1.2v20.3c0 .8.4 1.2 1.2 1.2h1c.8 0 1.2-.4 1.2-1.2V10.2c0-.8-.4-1.2-1.2-1.2zM158.1 37.1l-4.5-33.6h6.8l2.4 23.9 2.4-23.9h6.2l-4.5 33.6h-8.8zM185.3 3.5v6h-5.8V17h5.5v6h-5.5v8.1h5.9v6h-12.6V3.5h12.5zM203.9 25.6v11.6h-6.7V25.6c0-.8-.4-1.2-1.2-1.2h-1.7v12.7h-6.7V3.5h10c4.2 0 6.2 2.1 6.2 6.2v6.5c0 2.9-1.1 4.3-2.9 5 2.1.6 3 1.9 3 4.4zm-8-16.2h-1.6v9.3h1.6c.8 0 1.2-.4 1.2-1.2v-6.9c0-.8-.4-1.2-1.2-1.2zM222.2 25v6.2c0 4.2-2.1 6.2-6.2 6.2h-3.7c-4.2 0-6.2-2.1-6.2-6.2V24h6.6v6.5c0 .8.4 1.2 1.2 1.2h.6c.8 0 1.2-.4 1.2-1.2v-4c0-1.1-.3-1.6-1.2-2.2l-5.8-4.3c-2.1-1.5-2.7-2.9-2.7-5.3V9.5c0-4.2 2.1-6.2 6.2-6.2h3.6c4.2 0 6.2 2.1 6.2 6.2v6.1h-6.6v-5.5c0-.8-.4-1.2-1.2-1.2h-.5c-.8 0-1.2.4-1.2 1.2v3.2c0 1.1.3 1.6 1.2 2.2l5.8 4.3c2.1 1.4 2.7 2.7 2.7 5.2z"/><path id="XMLID_4_" class="st0" d="M142.1 7.2h4.5v27.6h-4.5z"/><g id="XMLID_5_"><path id="XMLID_3_" class="st1" d="M146.4 16.2c-1.2 0-1.9.6-2.3 1.1-.4-.5-1.2-1.1-2.3-1.1-2 0-3.3 1.9-3.3 3.6 0 2.5 4.8 5.9 5.4 6.3.1.1.2.1.3.1s.2 0 .3-.1c.6-.4 5.4-3.7 5.4-6.3-.2-1.8-1.5-3.6-3.5-3.6z"/></g><path id="XMLID_11_" class="st1" d="M36 17.4V12c0-6.6-5.4-12-12-12h-6C11.4 0 6 5.4 6 12v5.4L0 33c0 3 9.4 9 21 9s21-6 21-9l-6-15.6zM12 37.1c-.6 0-1.1-.5-1.1-1.1s.5-1.1 1.1-1.1c.6 0 1.1.5 1.1 1.1s-.5 1.1-1.1 1.1zM10.5 21c0-.8.4-2 .9-2.7 0 0 1.4-1.8 4.3-1.8 1.5 0 2.5.7 2.5.7.7.5 1.3 1.5 1.3 2.3v2.2c0 .4-.7.8-1.5.8h-6c-.8 0-1.5-.7-1.5-1.5zm6 15H15v-3l1.5-1.5V36zm3.7 0H18v-6h2.2v6zm-1.4-7.5v-2.2c0-1.2 1-2.2 2.2-2.2 1.2 0 2.2 1 2.2 2.2v2.2h-4.4zM24 36h-2.2v-6H24v6zm3 0h-1.5v-4.5L27 33v3zm3 1.1c-.6 0-1.1-.5-1.1-1.1s.5-1.1 1.1-1.1c.6 0 1.1.5 1.1 1.1s-.5 1.1-1.1 1.1zm0-14.6h-6c-.8 0-1.5-.3-1.5-.8v-2.2c0-.8.6-1.9 1.3-2.3 0 0 1-.7 2.5-.7 2.9 0 4.3 1.8 4.3 1.8.5.6.9 1.9.9 2.7s-.7 1.5-1.5 1.5zm9.3 11.2c-.1 0-.2.1-.3.1-.3 0-.6-.2-.7-.5l-5.5-14c-1.4-3.6-3.2-5-6.4-5-2.1 0-3.8 1.3-3.8 1.3-.9.7-2.4.7-3.3 0 0 0-1.8-1.3-3.8-1.3-3.1 0-4.9 1.4-6.4 5l-5.5 14c-.2.4-.6.6-1 .4-.4-.1-.6-.6-.4-1l5.5-14c1.7-4.2 4-6 7.8-6 2.6 0 4.7 1.5 4.7 1.6.4.3 1.1.3 1.5 0 .1-.1 2.2-1.6 4.7-1.6 3.8 0 6.1 1.8 7.8 6l5.5 14c.1.4 0 .8-.4 1z"/></svg>