<?xml version="1.0" encoding="utf-8"?>
<!-- Generator: Adobe Illustrator 19.1.0, SVG Export Plug-In . SVG Version: 6.00 Build 0)  -->
<svg version="1.1" id="Calque_1" xmlns="http://www.w3.org/2000/svg" xmlns:xlink="http://www.w3.org/1999/xlink" x="0px" y="0px"
	 viewBox="0 0 69.8 69.8" style="enable-background:new 0 0 69.8 69.8;" xml:space="preserve">
<style type="text/css">
	.st0{display:none;}
	.st1{display:none;fill:#DADADA;}
	.st2{display:none;fill:#56A23F;}
	.st3{display:none;fill:#D31E35;}
	.st4{fill:#222322;}
	.st5{fill:#161615;}
	.st6{fill:#5A5A5A;}
	.st7{fill:#444443;}
	.st8{display:inline;}
	.st9{fill:#986726;}
	.st10{fill:#47361A;}
	.st11{fill:#9F7236;}
	.st12{fill:#AA7D3F;}
	.st13{fill:#3D3C3D;}
	.st14{fill:#222325;}
	.st15{display:inline;fill:#FFFFFF;}
	.st16{display:none;fill:#FFFFFF;stroke:#C6C6C6;stroke-width:8;stroke-miterlimit:10;}
</style>
<rect x="-234" y="-651" class="st0" width="800" height="800"/>
<rect x="-119.3" y="-40.5" class="st1" width="570.6" height="157.4"/>
<circle class="st3" cx="34.9" cy="34.7" r="57.6"/>
<g>
	<polygon class="st4" points="2.6,50.6 12.4,23.2 31.3,45.4 	"/>
	<path class="st4" d="M34.9,53.6c-13.2,0-23.9-12-23.9-26.8S21.7,0,34.9,0"/>
	<polygon points="69.8,56.6 34.9,69.8 0,56.6 	"/>
	<polygon class="st5" points="67.2,50.6 57.5,23.2 38.6,45.4 	"/>
	<path class="st5" d="M34.9,53.6c13.2,0,23.9-12,23.9-26.8S48.1,0,34.9,0"/>
	<g>
		<path d="M30.2,47.6c0.1-10.7,4.5-20.1,13-20.1c8.5,0,23.7,18,26.7,29"/>
		<path d="M39.7,47.6c-0.1-10.7-4.5-20.1-13-20.1c-9,0.1-23.2,16.2-26.7,29"/>
	</g>
	<polygon points="0,56.6 34.9,44.6 69.8,56.6 	"/>
	<rect x="23.3" y="48" class="st6" width="3" height="7.9"/>
	<rect x="28.2" y="43.8" class="st6" width="3" height="12.1"/>
	<rect x="33.2" y="40.4" class="st6" width="3" height="15.5"/>
	<rect x="43.5" y="48" class="st7" width="3" height="7.9"/>
	<rect x="38.6" y="43.8" class="st7" width="3" height="12.1"/>
</g>
</svg>
