<?xml version="1.0" encoding="utf-8"?>
<!-- Generator: Adobe Illustrator 19.1.0, SVG Export Plug-In . SVG Version: 6.00 Build 0)  -->
<svg version="1.1" id="Calque_1" xmlns="http://www.w3.org/2000/svg" xmlns:xlink="http://www.w3.org/1999/xlink" x="0px" y="0px"
	 viewBox="0 0 224.5 42" style="enable-background:new 0 0 224.5 42;" xml:space="preserve">
<style type="text/css">
	.st0{fill:#FFFFFF;}
	.st1{fill:#D42258;}
</style>
<g>
	<path class="st0" d="M69.9,25v6.2c0,4.2-2.1,6.2-6.2,6.2h-3.7c-4.2,0-6.2-2.1-6.2-6.2V24h6.6v6.5c0,0.8,0.4,1.2,1.2,1.2h0.6
		c0.8,0,1.2-0.4,1.2-1.2v-4c0-1.1-0.3-1.6-1.2-2.2l-5.8-4.3c-2.1-1.5-2.7-2.9-2.7-5.3V9.5c0-4.2,2.1-6.2,6.2-6.2h3.6
		c4.2,0,6.2,2.1,6.2,6.2v6.1h-6.6v-5.5c0-0.8-0.4-1.2-1.2-1.2h-0.5c-0.8,0-1.2,0.4-1.2,1.2v3.2c0,1.1,0.3,1.6,1.2,2.2l5.8,4.3
		C69.3,21.2,69.9,22.5,69.9,25z"/>
	<path class="st0" d="M75,37.1V9.5h-4.1v-6h14.9v6h-4.1v27.6H75z"/>
	<path class="st0" d="M95.9,37.1l-0.5-4.9h-4.2l-0.5,4.9h-6.1L89,3.5h9.2l4.4,33.6H95.9z M91.8,26.4h3l-1.5-14.6L91.8,26.4z"/>
	<path class="st0" d="M120.4,25.6v11.6h-6.7V25.6c0-0.8-0.4-1.2-1.2-1.2h-1.7v12.7h-6.7V3.5h10c4.2,0,6.2,2.1,6.2,6.2v6.5
		c0,2.9-1.1,4.3-2.9,5C119.5,21.8,120.4,23.1,120.4,25.6z M112.4,9.4h-1.6v9.3h1.6c0.8,0,1.2-0.4,1.2-1.2v-6.9
		C113.6,9.8,113.2,9.4,112.4,9.4z"/>
	<path class="st0" d="M129.4,3.5v27.6h4.8v6h-11.6V3.5H129.4z"/>
	<path class="st0" d="M146.2,37.4h-4.3c-4.2,0-6.2-2.1-6.2-6.2V9.5c0-4.2,2.1-6.2,6.2-6.2h4.3c4.2,0,6.2,2.1,6.2,6.2v21.7
		C152.4,35.4,150.4,37.4,146.2,37.4z M144.5,9h-1c-0.8,0-1.2,0.4-1.2,1.2v20.3c0,0.8,0.4,1.2,1.2,1.2h1c0.8,0,1.2-0.4,1.2-1.2V10.2
		C145.7,9.4,145.3,9,144.5,9z"/>
	<path class="st0" d="M158.1,37.1l-4.5-33.6h6.8l2.4,23.9l2.4-23.9h6.2l-4.5,33.6H158.1z"/>
	<path class="st0" d="M185.3,3.5v6h-5.8v7.5h5.5v6h-5.5v8.1h5.9v6h-12.6V3.5H185.3z"/>
	<path class="st0" d="M203.9,25.6v11.6h-6.7V25.6c0-0.8-0.4-1.2-1.2-1.2h-1.7v12.7h-6.7V3.5h10c4.2,0,6.2,2.1,6.2,6.2v6.5
		c0,2.9-1.1,4.3-2.9,5C203,21.8,203.9,23.1,203.9,25.6z M195.9,9.4h-1.6v9.3h1.6c0.8,0,1.2-0.4,1.2-1.2v-6.9
		C197.1,9.8,196.7,9.4,195.9,9.4z"/>
	<path class="st0" d="M222.2,25v6.2c0,4.2-2.1,6.2-6.2,6.2h-3.7c-4.2,0-6.2-2.1-6.2-6.2V24h6.6v6.5c0,0.8,0.4,1.2,1.2,1.2h0.6
		c0.8,0,1.2-0.4,1.2-1.2v-4c0-1.1-0.3-1.6-1.2-2.2l-5.8-4.3c-2.1-1.5-2.7-2.9-2.7-5.3V9.5c0-4.2,2.1-6.2,6.2-6.2h3.6
		c4.2,0,6.2,2.1,6.2,6.2v6.1h-6.6v-5.5c0-0.8-0.4-1.2-1.2-1.2h-0.5c-0.8,0-1.2,0.4-1.2,1.2v3.2c0,1.1,0.3,1.6,1.2,2.2l5.8,4.3
		C221.6,21.2,222.2,22.5,222.2,25z"/>
</g>
<rect id="XMLID_4_" x="142.1" y="7.2" class="st0" width="4.5" height="27.6"/>
<g id="XMLID_5_">
	<path id="XMLID_3_" class="st1" d="M146.4,16.2c-1.2,0-1.9,0.6-2.3,1.1c-0.4-0.5-1.2-1.1-2.3-1.1c-2,0-3.3,1.9-3.3,3.6
		c0,2.5,4.8,5.9,5.4,6.3c0.1,0.1,0.2,0.1,0.3,0.1s0.2,0,0.3-0.1c0.6-0.4,5.4-3.7,5.4-6.3C149.7,18,148.4,16.2,146.4,16.2z"/>
</g>
<path id="XMLID_11_" class="st1" d="M36,17.4V12c0-6.6-5.4-12-12-12h-6C11.4,0,6,5.4,6,12v5.4L0,33c0,3,9.4,9,21,9s21-6,21-9
	L36,17.4z M12,37.1c-0.6,0-1.1-0.5-1.1-1.1s0.5-1.1,1.1-1.1c0.6,0,1.1,0.5,1.1,1.1S12.6,37.1,12,37.1z M10.5,21c0-0.8,0.4-2,0.9-2.7
	c0,0,1.4-1.8,4.3-1.8c1.5,0,2.5,0.7,2.5,0.7c0.7,0.5,1.3,1.5,1.3,2.3v2.2c0,0.4-0.7,0.8-1.5,0.8h-6C11.2,22.5,10.5,21.8,10.5,21z
	 M16.5,36H15v-3l1.5-1.5V36z M20.2,36H18v-6h2.2V36z M18.8,28.5v-2.2c0-1.2,1-2.2,2.2-2.2c1.2,0,2.2,1,2.2,2.2v2.2H18.8z M24,36
	h-2.2v-6H24V36z M27,36h-1.5v-4.5L27,33V36z M30,37.1c-0.6,0-1.1-0.5-1.1-1.1s0.5-1.1,1.1-1.1c0.6,0,1.1,0.5,1.1,1.1
	S30.6,37.1,30,37.1z M30,22.5h-6c-0.8,0-1.5-0.3-1.5-0.8v-2.2c0-0.8,0.6-1.9,1.3-2.3c0,0,1-0.7,2.5-0.7c2.9,0,4.3,1.8,4.3,1.8
	c0.5,0.6,0.9,1.9,0.9,2.7S30.8,22.5,30,22.5z M39.3,33.7c-0.1,0-0.2,0.1-0.3,0.1c-0.3,0-0.6-0.2-0.7-0.5l-5.5-14
	c-1.4-3.6-3.2-5-6.4-5c-2.1,0-3.8,1.3-3.8,1.3c-0.9,0.7-2.4,0.7-3.3,0c0,0-1.8-1.3-3.8-1.3c-3.1,0-4.9,1.4-6.4,5l-5.5,14
	c-0.2,0.4-0.6,0.6-1,0.4c-0.4-0.1-0.6-0.6-0.4-1l5.5-14c1.7-4.2,4-6,7.8-6c2.6,0,4.7,1.5,4.7,1.6c0.4,0.3,1.1,0.3,1.5,0
	c0.1-0.1,2.2-1.6,4.7-1.6c3.8,0,6.1,1.8,7.8,6l5.5,14C39.8,33.1,39.7,33.5,39.3,33.7z"/>
</svg>
