<?xml version="1.0" encoding="utf-8"?>
<!-- Generator: Adobe Illustrator 19.1.0, SVG Export Plug-In . SVG Version: 6.00 Build 0)  -->
<svg version="1.1" id="Calque_1" xmlns="http://www.w3.org/2000/svg" xmlns:xlink="http://www.w3.org/1999/xlink" x="0px" y="0px"
	 viewBox="-112.7 47.1 222.1 74.5" style="enable-background:new -112.7 47.1 222.1 74.5;" xml:space="preserve">
<style type="text/css">
	.st0{display:none;}
	.st1{display:inline;}
	.st2{enable-background:new    ;}
	.st3{fill:#FFFFFF;}
	.st4{fill:#D42258;}
</style>
<g id="Calque_2" class="st0">
	<rect id="XMLID_1_" x="-149" y="-50" class="st1" width="300" height="300"/>
</g>
<g class="st2">
	<path class="st3" d="M-42.8,91v6.2c0,4.2-2.1,6.2-6.2,6.2h-3.7c-4.2,0-6.2-2.1-6.2-6.2V90h6.6v6.5c0,0.8,0.4,1.2,1.2,1.2h0.6
		c0.8,0,1.2-0.4,1.2-1.2v-4c0-1.1-0.3-1.6-1.2-2.2l-5.8-4.3c-2.1-1.5-2.7-2.9-2.7-5.3v-5.3c0-4.2,2.1-6.2,6.2-6.2h3.6
		c4.2,0,6.2,2.1,6.2,6.2v6.1h-6.6v-5.5c0-0.8-0.4-1.2-1.2-1.2h-0.5c-0.8,0-1.2,0.4-1.2,1.2v3.2c0,1.1,0.3,1.6,1.2,2.2l5.8,4.3
		C-43.4,87.2-42.8,88.5-42.8,91z"/>
	<path class="st3" d="M-37.7,103.1V75.5h-4.1v-6h14.9v6h-4.1v27.6H-37.7z"/>
	<path class="st3" d="M-16.7,103.1l-0.5-4.9h-4.2l-0.5,4.9h-6.1l4.4-33.6h9.2l4.4,33.6H-16.7z M-20.9,92.4h3l-1.5-14.6L-20.9,92.4z"
		/>
	<path class="st3" d="M7.7,91.5v11.6H1V91.6c0-0.8-0.4-1.2-1.2-1.2h-1.7v12.7h-6.7V69.5h10c4.2,0,6.2,2.1,6.2,6.2v6.5
		c0,2.9-1.1,4.3-2.9,5C6.8,87.8,7.7,89.1,7.7,91.5z M-0.3,75.4h-1.6v9.3h1.6c0.8,0,1.2-0.4,1.2-1.2v-6.9C0.9,75.8,0.6,75.4-0.3,75.4
		z"/>
	<path class="st3" d="M16.7,69.5v27.6h4.8v6H10V69.5H16.7z"/>
	<path class="st3" d="M33.5,103.4h-4.3c-4.2,0-6.2-2.1-6.2-6.2V75.5c0-4.2,2.1-6.2,6.2-6.2h4.3c4.2,0,6.2,2.1,6.2,6.2v21.7
		C39.8,101.3,37.7,103.4,33.5,103.4z M31.8,75h-1c-0.8,0-1.2,0.4-1.2,1.2v20.3c0,0.8,0.4,1.2,1.2,1.2h1c0.8,0,1.2-0.4,1.2-1.2V76.2
		C33,75.4,32.7,75,31.8,75z"/>
	<path class="st3" d="M45.4,103.1l-4.5-33.6h6.8L50,93.4l2.4-23.9h6.2l-4.5,33.6H45.4z"/>
	<path class="st3" d="M72.6,69.5v6h-5.8v7.5h5.5v6h-5.5v8.1h5.9v6H60.2V69.5H72.6z"/>
	<path class="st3" d="M91.2,91.5v11.6h-6.7V91.6c0-0.8-0.4-1.2-1.2-1.2h-1.7v12.7h-6.7V69.5h10c4.2,0,6.2,2.1,6.2,6.2v6.5
		c0,2.9-1.1,4.3-2.9,5C90.4,87.8,91.2,89.1,91.2,91.5z M83.3,75.4h-1.6v9.3h1.6c0.8,0,1.2-0.4,1.2-1.2v-6.9
		C84.5,75.8,84.1,75.4,83.3,75.4z"/>
	<path class="st3" d="M109.5,91v6.2c0,4.2-2.1,6.2-6.2,6.2h-3.7c-4.2,0-6.2-2.1-6.2-6.2V90h6.6v6.5c0,0.8,0.4,1.2,1.2,1.2h0.6
		c0.8,0,1.2-0.4,1.2-1.2v-4c0-1.1-0.3-1.6-1.2-2.2L96,86.1c-2.1-1.5-2.7-2.9-2.7-5.3v-5.3c0-4.2,2.1-6.2,6.2-6.2h3.6
		c4.2,0,6.2,2.1,6.2,6.2v6.1h-6.6v-5.5c0-0.8-0.4-1.2-1.2-1.2h-0.5c-0.8,0-1.2,0.4-1.2,1.2v3.2c0,1.1,0.3,1.6,1.2,2.2l5.8,4.3
		C108.9,87.2,109.5,88.5,109.5,91z"/>
</g>
<rect id="XMLID_4_" x="29.4" y="73.1" class="st3" width="4.5" height="27.6"/>
<g id="XMLID_3_">
	<path id="XMLID_5_" class="st4" d="M33.7,82.1c-1.2,0-1.9,0.6-2.3,1.1c-0.4-0.5-1.2-1.1-2.3-1.1c-2,0-3.3,1.9-3.3,3.6
		c0,2.5,4.8,5.9,5.4,6.3c0.1,0.1,0.2,0.1,0.3,0.1s0.2,0,0.3-0.1c0.6-0.4,5.4-3.7,5.4-6.3C37.1,84,35.7,82.1,33.7,82.1z"/>
</g>
<g id="XMLID_7_">
	<path id="XMLID_8_" class="st4" d="M38.9,54.2c-1.2,0-1.9,0.6-2.3,1.1c-0.4-0.5-1.2-1.1-2.3-1.1c-2,0-3.3,1.9-3.3,3.6
		c0,2.5,4.8,5.9,5.4,6.3c0.1,0.1,0.2,0.1,0.3,0.1s0.2,0,0.3-0.1c0.6-0.4,5.4-3.7,5.4-6.3C42.2,56,40.9,54.2,38.9,54.2z"/>
</g>
<g id="XMLID_9_">
	<path id="XMLID_10_" class="st4" d="M46.4,47.1c-0.6,0-1,0.3-1.2,0.6c-0.2-0.3-0.6-0.6-1.2-0.6c-1,0-1.7,1-1.7,1.9
		c0,1.3,2.5,3.1,2.8,3.3c0,0,0.1,0,0.2,0c0.1,0,0.1,0,0.2,0c0.3-0.2,2.8-2,2.8-3.3C48.1,48.1,47.4,47.1,46.4,47.1z"/>
</g>
<path id="XMLID_11_" class="st4" d="M-76.7,83.4V78c0-6.6-5.4-12-12-12h-6c-6.6,0-12,5.4-12,12v5.4l-6,15.6c0,3,9.4,9,21,9
	s21-6,21-9L-76.7,83.4z M-100.7,103.1c-0.6,0-1.1-0.5-1.1-1.1s0.5-1.1,1.1-1.1c0.6,0,1.1,0.5,1.1,1.1S-100.1,103.1-100.7,103.1z
	 M-102.2,87c0-0.8,0.4-2,0.9-2.7c0,0,1.4-1.8,4.3-1.8c1.5,0,2.5,0.7,2.5,0.7c0.7,0.5,1.3,1.5,1.3,2.3v2.2c0,0.4-0.7,0.8-1.5,0.8h-6
	C-101.5,88.5-102.2,87.8-102.2,87z M-96.2,102h-1.5v-3l1.5-1.5V102z M-92.4,102h-2.2v-6h2.2V102z M-93.9,94.5v-2.2
	c0-1.2,1-2.2,2.2-2.2c1.2,0,2.2,1,2.2,2.2v2.2H-93.9z M-88.7,102h-2.2v-6h2.2V102z M-85.7,102h-1.5v-4.5l1.5,1.5V102z M-82.7,103.1
	c-0.6,0-1.1-0.5-1.1-1.1s0.5-1.1,1.1-1.1s1.1,0.5,1.1,1.1S-82.1,103.1-82.7,103.1z M-82.7,88.5h-6c-0.8,0-1.5-0.3-1.5-0.8v-2.2
	c0-0.8,0.6-1.9,1.3-2.3c0,0,1-0.7,2.5-0.7c2.9,0,4.3,1.8,4.3,1.8c0.5,0.6,0.9,1.9,0.9,2.7S-81.8,88.5-82.7,88.5z M-73.4,99.7
	c-0.1,0-0.2,0.1-0.3,0.1c-0.3,0-0.6-0.2-0.7-0.5l-5.5-14c-1.4-3.6-3.2-5-6.4-5c-2.1,0-3.8,1.3-3.8,1.3c-0.9,0.7-2.4,0.7-3.3,0
	c0,0-1.8-1.3-3.8-1.3c-3.1,0-4.9,1.4-6.4,5l-5.5,14c-0.2,0.4-0.6,0.6-1,0.4c-0.4-0.1-0.6-0.6-0.4-1l5.5-14c1.7-4.2,4-6,7.8-6
	c2.6,0,4.7,1.5,4.7,1.6c0.4,0.3,1.1,0.3,1.5,0c0.1-0.1,2.2-1.6,4.7-1.6c3.8,0,6.1,1.8,7.8,6l5.5,14C-72.8,99.1-73,99.5-73.4,99.7z"
	/>
<g class="st2">
	<path class="st4" d="M-55.7,121.6l-1.9-6.2h0c0.1,1.3,0.1,2.1,0.1,2.5v3.7H-59v-7.9h2.3l1.9,6h0l2-6h2.3v7.9h-1.6v-3.7
		c0-0.2,0-0.4,0-0.6c0-0.2,0-0.8,0.1-1.8h0l-2,6.2H-55.7z"/>
	<path class="st4" d="M-43.2,121.6l-0.6-1.9h-2.9l-0.6,1.9H-49l2.8-7.9h2l2.8,7.9H-43.2z M-44.2,118.4c-0.5-1.7-0.8-2.7-0.9-2.9
		c-0.1-0.2-0.1-0.4-0.1-0.5c-0.1,0.5-0.5,1.6-1,3.4H-44.2z"/>
	<path class="st4" d="M-37.3,117l1.6-3.2h1.8l-2.6,4.8v3.1h-1.7v-3l-2.6-4.9h1.8L-37.3,117z"/>
	<path class="st4" d="M-25.6,121.6h-1.7v-6.5h-2.1v-1.4h5.9v1.4h-2.1V121.6z"/>
	<path class="st4" d="M-15.2,121.6h-1.7v-3.4H-20v3.4h-1.7v-7.9h1.7v3.1h3.1v-3.1h1.7V121.6z"/>
	<path class="st4" d="M-8,121.6h-4.5v-7.9H-8v1.4h-2.9v1.7h2.7v1.4h-2.7v2H-8V121.6z"/>
	<path class="st4" d="M-2.2,121.6v-7.9h1.7v6.5h3.2v1.4H-2.2z"/>
	<path class="st4" d="M11.8,117.7c0,1.3-0.3,2.3-1,3c-0.6,0.7-1.6,1-2.8,1s-2.1-0.3-2.8-1c-0.6-0.7-1-1.7-1-3c0-1.3,0.3-2.3,1-3
		c0.6-0.7,1.6-1,2.8-1c1.2,0,2.1,0.3,2.8,1C11.5,115.4,11.8,116.4,11.8,117.7z M6.1,117.7c0,0.9,0.2,1.5,0.5,2s0.8,0.7,1.5,0.7
		c1.3,0,2-0.9,2-2.6c0-1.8-0.7-2.7-2-2.7c-0.7,0-1.2,0.2-1.5,0.7C6.3,116.2,6.1,116.8,6.1,117.7z"/>
	<path class="st4" d="M18.6,113.8h1.7l-2.7,7.9h-1.8l-2.7-7.9h1.7l1.5,4.7c0.1,0.3,0.2,0.6,0.3,1c0.1,0.4,0.1,0.6,0.2,0.8
		c0-0.3,0.2-0.9,0.4-1.7L18.6,113.8z"/>
	<path class="st4" d="M26.5,121.6H22v-7.9h4.5v1.4h-2.9v1.7h2.7v1.4h-2.7v2h2.9V121.6z"/>
	<path class="st4" d="M32.3,113.8h2.4c1.1,0,1.9,0.2,2.4,0.5c0.5,0.3,0.8,0.8,0.8,1.5c0,0.5-0.1,0.9-0.3,1.2
		c-0.2,0.3-0.5,0.5-0.9,0.5v0.1c0.5,0.1,0.9,0.3,1.1,0.6c0.2,0.3,0.3,0.7,0.3,1.2c0,0.7-0.3,1.3-0.8,1.7s-1.2,0.6-2.1,0.6h-2.9
		V113.8z M34,116.9h1c0.5,0,0.8-0.1,1-0.2c0.2-0.1,0.3-0.4,0.3-0.7c0-0.3-0.1-0.5-0.3-0.6c-0.2-0.1-0.6-0.2-1-0.2H34V116.9z
		 M34,118.2v2h1.1c0.5,0,0.8-0.1,1-0.3c0.2-0.2,0.3-0.4,0.3-0.8c0-0.7-0.5-1-1.4-1H34z"/>
	<path class="st4" d="M44.9,121.6h-4.5v-7.9h4.5v1.4H42v1.7h2.7v1.4H42v2h2.9V121.6z"/>
	<path class="st4" d="M58.4,121.6h-1.9l-1.1-4.1c0-0.1-0.1-0.5-0.2-0.9c-0.1-0.5-0.1-0.8-0.2-0.9c0,0.2-0.1,0.5-0.2,0.9
		s-0.2,0.7-0.2,0.9l-1.1,4.1h-1.9l-2-7.9h1.6l1,4.3c0.2,0.8,0.3,1.5,0.4,2.1c0-0.2,0.1-0.5,0.1-0.9s0.1-0.8,0.2-1l1.1-4.4h1.6
		l1.1,4.4c0.1,0.2,0.1,0.5,0.2,0.9c0.1,0.4,0.1,0.8,0.2,1c0-0.3,0.1-0.6,0.2-1c0.1-0.4,0.2-0.8,0.2-1l1-4.3h1.6L58.4,121.6z"/>
	<path class="st4" d="M62,121.6v-7.9h1.7v7.9H62z"/>
	<path class="st4" d="M69.4,121.6h-1.7v-6.5h-2.1v-1.4h5.9v1.4h-2.1V121.6z"/>
	<path class="st4" d="M79.8,121.6h-1.7v-3.4h-3.1v3.4h-1.7v-7.9h1.7v3.1h3.1v-3.1h1.7V121.6z"/>
	<path class="st4" d="M88.5,117l1.6-3.2h1.8l-2.6,4.8v3.1h-1.7v-3l-2.6-4.9h1.8L88.5,117z"/>
	<path class="st4" d="M100.7,117.7c0,1.3-0.3,2.3-1,3c-0.6,0.7-1.6,1-2.8,1s-2.1-0.3-2.8-1c-0.6-0.7-1-1.7-1-3c0-1.3,0.3-2.3,1-3
		s1.6-1,2.8-1c1.2,0,2.1,0.3,2.8,1C100.4,115.4,100.7,116.4,100.7,117.7z M94.9,117.7c0,0.9,0.2,1.5,0.5,2s0.8,0.7,1.5,0.7
		c1.3,0,2-0.9,2-2.6c0-1.8-0.7-2.7-2-2.7c-0.7,0-1.2,0.2-1.5,0.7C95.1,116.2,94.9,116.8,94.9,117.7z"/>
	<path class="st4" d="M109.4,113.8v5.1c0,0.6-0.1,1.1-0.4,1.5s-0.6,0.8-1.1,1c-0.5,0.2-1.1,0.3-1.7,0.3c-1,0-1.8-0.3-2.4-0.8
		s-0.8-1.2-0.8-2.1v-5.1h1.7v4.8c0,0.6,0.1,1,0.4,1.3c0.2,0.3,0.6,0.4,1.2,0.4c0.5,0,0.9-0.1,1.2-0.4c0.2-0.3,0.4-0.7,0.4-1.3v-4.8
		H109.4z"/>
</g>
</svg>
